<svg width="20" height="19" viewBox="0 0 20 19" fill="none" xmlns="http://www.w3.org/2000/svg">
<path d="M19.0257 17.05L15.3152 13.35C16.318 12.05 17.02 10.35 17.02 8.45C17.02 4.05 13.4098 0.449997 8.99731 0.449997C4.58481 0.449997 0.974609 4.15 0.974609 8.55C0.974609 12.95 4.58481 16.55 8.99731 16.55C10.8024 16.55 12.5072 15.95 13.9112 14.85L17.6217 18.55L19.0257 17.05ZM8.99731 14.55C5.68791 14.55 2.98031 11.85 2.98031 8.55C2.98031 5.25 5.68791 2.55 8.99731 2.55C12.3067 2.55 15.0143 5.25 15.0143 8.55C15.0143 11.85 12.3067 14.55 8.99731 14.55Z" fill="black"/>
</svg>
